<svg width="56" height="56" viewBox="0 0 56 56" fill="none" xmlns="http://www.w3.org/2000/svg">
<path d="M42.6999 13.3233C41.7899 12.4133 40.91 13.09 40 14L27.9999 26L16.5 14.5C15.59 13.59 14.2099 12.39 13.2999 13.3C12.3899 14.21 13.09 15.68 14 16.59L26 28L13.2999 40C12.3899 40.91 12.3899 41.79 13.2999 42.7C14.2099 43.61 15.09 42.91 16 42L27.9999 30.5L40 42C40.91 42.91 41.7899 43.61 42.6999 42.7C43.6099 41.79 43.6099 40.91 42.6999 40L30 28L42 16C42.8867 15.1134 43.5866 14.21 42.6999 13.3233Z" fill="white"/>
</svg>
