<svg width="20" height="24" viewBox="0 0 20 24" fill="none" xmlns="http://www.w3.org/2000/svg">
<path d="M14.8546 5.53976C12.7542 5.53976 11.8665 6.55617 10.4037 6.55617C8.90391 6.55617 7.75991 5.54716 5.93974 5.54716C4.15811 5.54716 2.25823 6.6502 1.05173 8.52928C-0.64238 11.1791 -0.354819 16.1698 2.38899 20.4213C3.37045 21.9433 4.68114 23.6502 6.40025 23.6687H6.43151C7.92557 23.6687 8.36942 22.6765 10.4256 22.6649H10.4568C12.4823 22.6649 12.8886 23.6628 14.3764 23.6628H14.4077C16.1268 23.6444 17.5078 21.7531 18.4893 20.237C19.1957 19.1466 19.4582 18.5993 20 17.3658C16.0309 15.838 15.3933 10.1321 19.3186 7.94448C18.1204 6.42304 16.4367 5.54188 14.8494 5.54188L14.8546 5.53976Z" fill="white"/>
<path d="M14.3922 0C13.1419 0.0861092 11.6833 0.893317 10.8289 1.94723C10.0537 2.90235 9.41611 4.31919 9.66616 5.69324H9.76618C11.0977 5.69324 12.4605 4.88022 13.2565 3.83846C14.0233 2.84689 14.6047 1.44167 14.3922 0V0Z" fill="white"/>
</svg>
