<svg width="20" height="21" viewBox="0 0 20 21" fill="none" xmlns="http://www.w3.org/2000/svg">
<path fill-rule="evenodd" clip-rule="evenodd" d="M5.87727 0.0608447C6.94364 0.0110627 7.28364 0 10 0C12.7164 0 13.0564 0.0119845 14.1218 0.0608447C15.1873 0.109705 15.9145 0.282098 16.5509 0.53193C17.2173 0.787293 17.8218 1.18647 18.3218 1.70273C18.8309 2.20885 19.2236 2.82098 19.4745 3.49765C19.7218 4.14297 19.8909 4.88048 19.94 5.95909C19.9891 7.04231 20 7.3871 20 10.1408C20 12.8954 19.9882 13.2402 19.94 14.3215C19.8918 15.4002 19.7218 16.1377 19.4745 16.783C19.2236 17.4597 18.8303 18.0729 18.3218 18.5798C17.8218 19.096 17.2173 19.4943 16.5509 19.7487C15.9145 19.9995 15.1873 20.1709 14.1236 20.2207C13.0564 20.2705 12.7164 20.2816 10 20.2816C7.28364 20.2816 6.94364 20.2696 5.87727 20.2207C4.81364 20.1719 4.08636 19.9995 3.45 19.7487C2.78266 19.4942 2.17802 19.0953 1.67818 18.5798C1.16944 18.0733 0.775741 17.4605 0.524545 16.7839C0.278182 16.1386 0.109091 15.4011 0.06 14.3225C0.0109091 13.2392 0 12.8945 0 10.1408C0 7.38618 0.0118182 7.04139 0.06 5.96094C0.108182 4.88048 0.278182 4.14297 0.524545 3.49765C0.776112 2.82106 1.17011 2.20821 1.67909 1.70181C2.17822 1.18601 2.78225 0.78678 3.44909 0.53193C4.08545 0.282098 4.81273 0.110627 5.87636 0.0608447H5.87727ZM14.0409 1.88619C12.9864 1.83733 12.67 1.82718 10 1.82718C7.33 1.82718 7.01364 1.83733 5.95909 1.88619C4.98364 1.93136 4.45455 2.09638 4.10182 2.23558C3.63545 2.41996 3.30182 2.63845 2.95182 2.99337C2.62004 3.32069 2.36471 3.71916 2.20455 4.15956C2.06727 4.51726 1.90455 5.0538 1.86 6.04298C1.81182 7.11237 1.80182 7.43319 1.80182 10.1408C1.80182 12.8484 1.81182 13.1692 1.86 14.2386C1.90455 15.2278 2.06727 15.7643 2.20455 16.122C2.36455 16.5617 2.62 16.9609 2.95182 17.2882C3.27455 17.6247 3.66818 17.8837 4.10182 18.046C4.45455 18.1852 4.98364 18.3502 5.95909 18.3954C7.01364 18.4442 7.32909 18.4544 10 18.4544C12.6709 18.4544 12.9864 18.4442 14.0409 18.3954C15.0164 18.3502 15.5455 18.1852 15.8982 18.046C16.3645 17.8616 16.6982 17.6431 17.0482 17.2882C17.38 16.9609 17.6355 16.5617 17.7955 16.122C17.9327 15.7643 18.0955 15.2278 18.14 14.2386C18.1882 13.1692 18.1982 12.8484 18.1982 10.1408C18.1982 7.43319 18.1882 7.11237 18.14 6.04298C18.0955 5.0538 17.9327 4.51726 17.7955 4.15956C17.6136 3.68663 17.3982 3.3483 17.0482 2.99337C16.7254 2.65695 16.3325 2.39803 15.8982 2.23558C15.5455 2.09638 15.0164 1.93136 14.0409 1.88619V1.88619ZM8.72273 13.2669C9.43605 13.568 10.2303 13.6087 10.9699 13.3819C11.7095 13.1551 12.3485 12.675 12.7778 12.0235C13.2071 11.372 13.4001 10.5896 13.3237 9.80992C13.2473 9.03022 12.9064 8.30159 12.3591 7.74848C12.0102 7.39491 11.5884 7.12419 11.1239 6.95579C10.6595 6.78739 10.164 6.72551 9.67318 6.77461C9.18233 6.8237 8.70832 6.98255 8.28528 7.23972C7.86223 7.49688 7.50068 7.84596 7.22664 8.26183C6.9526 8.6777 6.7729 9.15002 6.70047 9.64477C6.62804 10.1395 6.66468 10.6444 6.80776 11.1231C6.95084 11.6017 7.1968 12.0423 7.52793 12.413C7.85905 12.7837 8.26711 13.0753 8.72273 13.2669ZM6.36545 6.45507C6.84275 5.97105 7.40938 5.58711 8.033 5.32516C8.65661 5.06322 9.325 4.9284 10 4.9284C10.675 4.9284 11.3434 5.06322 11.967 5.32516C12.5906 5.58711 13.1573 5.97105 13.6345 6.45507C14.1118 6.93908 14.4905 7.51369 14.7488 8.14609C15.0071 8.77848 15.14 9.45628 15.14 10.1408C15.14 10.8253 15.0071 11.5031 14.7488 12.1355C14.4905 12.7679 14.1118 13.3425 13.6345 13.8265C12.6706 14.804 11.3632 15.3532 10 15.3532C8.63678 15.3532 7.3294 14.804 6.36545 13.8265C5.40151 12.849 4.85998 11.5232 4.85998 10.1408C4.85998 8.75837 5.40151 7.43258 6.36545 6.45507V6.45507ZM16.28 5.70465C16.3983 5.59151 16.493 5.45545 16.5585 5.30453C16.624 5.15361 16.6589 4.99089 16.6613 4.82603C16.6637 4.66116 16.6334 4.49748 16.5723 4.34469C16.5111 4.1919 16.4204 4.0531 16.3054 3.9365C16.1904 3.81991 16.0536 3.7279 15.9029 3.66591C15.7522 3.60392 15.5908 3.57322 15.4282 3.57562C15.2657 3.57803 15.1052 3.61349 14.9564 3.6799C14.8076 3.74632 14.6734 3.84234 14.5618 3.96228C14.3448 4.19554 14.226 4.50538 14.2306 4.82603C14.2352 5.14667 14.3629 5.45286 14.5865 5.67961C14.8101 5.90637 15.1121 6.03582 15.4282 6.04049C15.7444 6.04517 16.05 5.9247 16.28 5.70465V5.70465Z" fill="white"/>
</svg>
