<svg width="40" height="30" viewBox="0 0 40 30" fill="none" xmlns="http://www.w3.org/2000/svg">
<path d="M1.11894 1.67981C0.822181 1.67981 0.537574 1.59141 0.327731 1.43406C0.117889 1.2767 0 1.06328 0 0.840745C0 0.618211 0.117889 0.404791 0.327731 0.247435C0.537574 0.0900796 0.822181 0.00167801 1.11894 0.00167801L38.8811 0C39.1778 6.63204e-09 39.4624 0.0884012 39.6723 0.245757C39.8821 0.403112 40 0.616533 40 0.839067C40 1.0616 39.8821 1.27502 39.6723 1.43238C39.4624 1.58973 39.1778 1.67813 38.8811 1.67813L1.11894 1.67981ZM1.11894 15.8399C0.822181 15.8399 0.537574 15.7515 0.327731 15.5941C0.117889 15.4368 0 15.2234 0 15.0008C0 14.7783 0.117889 14.5649 0.327731 14.4075C0.537574 14.2502 0.822181 14.1618 1.11894 14.1618L38.8811 14.1584C39.1778 14.1584 39.4624 14.2468 39.6723 14.4042C39.8821 14.5615 40 14.7749 40 14.9975C40 15.22 39.8821 15.4334 39.6723 15.5908C39.4624 15.7481 39.1778 15.8365 38.8811 15.8365L1.11894 15.8399ZM1.11894 30C0.822181 30 0.537574 29.9116 0.327731 29.7542C0.117889 29.5969 0 29.3835 0 29.1609C0 28.9384 0.117889 28.725 0.327731 28.5676C0.537574 28.4103 0.822181 28.3219 1.11894 28.3219L38.8811 28.3185C39.1778 28.3185 39.4624 28.4069 39.6723 28.5643C39.8821 28.7216 40 28.935 40 29.1576C40 29.3801 39.8821 29.5935 39.6723 29.7509C39.4624 29.9082 39.1778 29.9966 38.8811 29.9966L1.11894 30Z" fill="white"/>
</svg>
